<svg width="75" height="87" viewBox="0 0 75 87" fill="none" xmlns="http://www.w3.org/2000/svg">
<path d="M44.6053 61.3555C45.5996 63.4351 46.6913 65.4692 47.8934 67.4376C49.2268 69.6268 50.884 71.6171 52.12 73.8518C54.1909 77.5947 56.6373 81.027 59.4093 84.2843C60.9662 86.1164 62.6869 86.8424 65.093 86.868C68.3783 86.9061 72.225 83.5968 71.1542 79.4208C70.7255 77.7581 69.9965 76.3862 68.7507 75.2967C67.6275 74.3087 66.3937 73.4487 65.2299 72.4973C64.4614 71.8648 63.5771 71.2888 63.0222 70.492C60.6071 66.9974 58.2031 63.49 55.9831 59.8732C54.4545 57.3768 53.2147 54.6961 51.8792 52.0847C51.3272 50.9998 50.8579 49.8655 50.432 48.9297C52.0307 47.9226 53.3776 47.0467 54.7646 46.2278C55.287 45.9233 55.8846 45.6301 56.4777 45.5699C58.5727 45.3447 60.1385 44.3136 61.2316 42.5925C62.5352 40.5344 63.7215 38.4153 64.9573 36.3166C65.4653 35.454 65.8416 34.4955 66.4648 33.7325C67.2762 32.7206 68.4171 31.9485 69.1461 30.8923C69.8732 29.8433 70.2763 28.5637 70.8389 27.3324C73.9821 27.5609 75.4268 25.5621 74.4277 22.8254C73.8282 21.1896 72.8124 19.9322 71.4842 18.7984C69.9767 17.5097 68.4566 16.1476 67.2622 14.5793C64.6889 11.1851 61.608 8.55983 57.4884 7.34941C52.8536 5.9847 48.456 4.02439 44.1934 1.80946C40.3924 -0.163285 36.5151 -0.42206 32.5663 0.768885C28.2041 2.08124 23.9016 3.61959 19.6319 5.21312C18.2001 5.74732 16.8239 6.61577 15.6401 7.58774C12.9852 9.77102 10.4618 12.1127 7.89642 14.4046C7.05848 15.1521 6.22962 15.9253 5.46666 16.7465C2.99718 19.3986 1.4018 22.421 1.48859 26.1674C1.50078 26.8263 1.28525 27.5211 1.07543 28.1627C-0.456349 32.8097 -0.00332377 37.266 2.23973 41.5914C2.81003 42.6966 3.32877 43.8512 3.67484 45.04C4.16409 46.7102 4.90913 48.2034 6.19323 49.3572C8.56573 51.4824 11.0175 53.5106 13.4029 55.6157C16.9427 58.7401 21.087 59.2385 25.5296 58.5009C27.6894 58.1438 29.8258 57.6637 31.9872 57.3617C34.1395 57.0651 36.086 56.3181 37.8837 55.1117C38.8627 54.4546 39.8799 53.862 40.9727 53.187C42.2248 56.0036 43.3396 58.715 44.6053 61.3555ZM68.4647 29.0561C68.0714 29.6823 67.7089 30.4023 67.153 30.8388C65.5238 32.1193 64.5702 33.8446 63.6128 35.6159C62.5186 37.649 61.3217 39.6249 60.1121 41.5898C59.2201 43.0419 57.9614 43.9089 56.1729 44.1261C55.2456 44.2419 54.3257 44.8202 53.5051 45.3457C52.4049 46.0501 51.4014 46.8961 49.9249 47.1144C49.6525 46.3425 49.391 45.589 49.1277 44.8428C50.6385 43.3215 52.2905 42.3201 54.2894 41.7972C55.6618 41.4353 57.0056 40.8787 58.2836 40.243C59.5433 39.6182 60.2781 38.4775 60.7784 37.2148C60.6358 37.0693 60.4913 36.9311 60.3487 36.7855C60.2505 37.0183 60.2073 37.2806 60.058 37.4691C58.8461 39.0429 57.1838 39.8699 55.2829 40.1913C52.8274 40.606 50.5414 41.337 48.5106 43.4915C47.8621 40.7579 45.75 38.6833 47.0955 35.7223C48.8228 35.6848 50.27 34.9671 51.3417 33.545C52.1294 32.5037 52.2425 32.1811 52.2471 30.5035C51.2569 30.7439 51.0184 31.6827 50.4362 32.2532C49.8522 32.831 49.2481 33.3958 48.4591 33.8278C49.5614 32.07 50.6783 30.3783 50.5567 28.0597C49.4553 28.5841 49.6493 29.6953 49.153 30.3891C48.5681 31.1852 47.9943 31.9998 47.3637 32.761C46.7773 33.4709 46.1178 34.131 45.4064 34.9029C42.8474 31.606 39.6428 29.1601 34.9285 28.4467C35.7369 29.6905 36.879 29.559 37.6443 30.0813C38.404 30.5944 39.2211 31.0049 39.9195 31.7289C38.5877 31.5311 37.2559 31.3334 35.9242 31.1356C35.8814 31.2731 35.8479 31.4052 35.8052 31.5427C36.0927 31.7016 36.3545 31.9008 36.6605 32.0176C37.4248 32.2976 38.2059 32.5116 38.9665 32.8063C42.117 34.0204 44.3612 36.0974 45.3489 39.4324C45.8998 41.2901 46.6951 43.0772 47.1726 44.9474C48.7118 50.9679 51.937 56.222 54.7816 61.6215C56.6368 65.1378 59.1301 68.3244 61.458 71.5782C62.1663 72.5701 63.2649 73.2864 64.196 74.1085C65.6448 75.3823 67.1361 76.6121 68.572 77.906C71.1328 80.2118 69.1311 84.4036 66.0986 84.9997C64.0267 85.4104 62.2144 85.1062 60.7107 83.3109C58.297 80.4257 56.0727 77.4403 54.2885 74.106C53.1129 71.91 51.6781 69.8434 50.245 67.8007C48.6221 65.4911 47.1737 63.1088 46.1081 60.4801C43.6877 54.5169 41.1387 48.5991 38.6668 42.654C38.1866 41.5014 37.7763 40.3197 37.4009 39.1234C36.7498 37.0451 35.5321 35.3226 34.112 33.7204C33.9238 33.5086 33.6343 33.3882 33.2608 33.1372C32.8508 34.782 34.1562 35.6367 34.5293 36.9651C30.2214 37.9712 27.394 35.301 24.1148 32.6878C24.3637 33.3679 24.388 33.7332 24.5854 33.9395C27.1246 36.638 29.997 38.5779 33.9619 38C34.6432 37.8998 34.6468 37.9163 35.445 38.4626C34.1696 39.8564 32.3611 39.0457 30.8982 39.5485C31.6476 41.3629 32.2877 41.4865 36.0115 40.5663C37.0516 43.1417 38.1046 45.7281 39.1356 48.2777C37.456 49.7874 35.66 50.5258 33.4702 50.5707C32.1982 50.599 30.937 51.1375 29.6876 51.5072C29.1565 51.6612 28.6726 51.9989 28.1524 52.2025C25.8714 53.0675 23.7629 52.9458 21.9122 51.1639C20.2828 49.5867 18.4283 48.3426 16.404 47.3053C14.7865 46.4806 14.0613 45.5546 13.48 43.9703C16.8702 42.9498 19.9119 41.3645 22.0943 38.4287C19.0744 40.0508 16.4655 42.6986 12.4975 42.1826C12.3603 39.618 11.2645 37.6922 9.679 36.1573C11.6279 34.2944 13.4754 32.554 15.301 30.7769C17.7272 28.4184 20.5975 27.0159 23.9792 26.7975C27.3039 26.5879 30.5387 25.9027 33.7356 25.0283C34.4577 24.8291 35.1871 24.6318 35.8619 24.3113C37.8274 23.3974 38.6958 21.3927 38.0778 19.3072C37.8386 18.4969 37.5479 17.7047 37.2737 16.9089C37.386 16.836 37.5074 16.7575 37.6196 16.6845C38.2419 17.1549 38.936 17.5576 39.4846 18.103C41.3186 19.9196 43.3867 20.9993 46.061 20.4918C47.3008 20.2524 48.2196 20.9386 48.6804 21.8911C50.2139 25.0447 53.0383 25.606 56.0498 25.7073C57.9309 25.7713 59.8101 25.3507 61.4455 24.3529C62.9246 23.4482 64.5253 23.3863 66.1513 23.4402C67.4745 23.4874 68.5684 23.9761 69.2335 25.2303C69.465 25.6717 69.7976 26.0529 70.0404 26.3878C69.4864 27.2778 69.0058 28.1863 68.4647 29.0561ZM20.5062 56.0537C19.1127 56.6523 17.7234 56.6195 16.422 55.6565C13.1129 53.1919 9.67294 50.8736 6.98324 47.6918C6.23957 46.808 5.76659 45.6885 5.24564 44.6348C4.83401 43.7963 4.64859 42.8357 4.16884 42.0501C2.5636 39.4249 1.76135 36.5587 1.46438 33.5475C1.34778 32.3467 1.57637 31.1086 1.67226 29.5324C2.15272 30.1307 2.42862 30.4584 2.72642 30.823C2.86276 30.6858 3.02098 30.5855 3.00469 30.5267C2.64664 29.1084 2.82262 27.7086 2.89965 26.2681C3.08563 22.7081 4.72233 19.9227 7.23637 17.6177C10.4135 14.7004 13.671 11.866 16.9633 9.07941C17.8987 8.28637 19.0062 7.58393 20.1513 7.16428C24.4871 5.55632 28.8121 3.89876 33.2403 2.60318C37.5253 1.34926 41.8701 1.7346 45.7598 4.03439C49.3034 6.12914 53.1142 7.44852 56.9693 8.71668C60.6796 9.94023 63.5177 12.1993 65.8978 15.2478C67.2293 16.9524 68.8535 18.4581 70.4779 19.9013C71.5791 20.8838 72.5352 21.884 73.0181 23.3028C73.4756 24.637 73.4865 24.6554 72.2157 25.8161C71.2768 25.6088 70.7858 24.8673 70.3372 24.1131C69.6149 22.899 68.5621 22.2177 67.1865 21.9776C64.9212 21.5818 62.7624 21.6892 60.6365 22.8045C57.9974 24.1876 55.1749 24.5715 52.3105 23.4301C51.5023 23.1077 50.6777 22.7577 50.3274 21.7083C51.4425 20.4846 52.0206 19.0387 51.2666 16.9967C50.6509 18.1911 50.1424 19.1784 49.634 20.1658C48.4952 19.8843 48.3246 19.3881 48.6785 18.4864C49.5793 16.1699 49.0428 13.8864 48.6293 11.6108C48.4751 11.6029 48.321 11.5949 48.1668 11.587C48.147 11.9724 48.1217 12.3486 48.1019 12.7339C48.0601 13.6056 48.0403 14.4828 47.9672 15.3544C47.6371 19.1745 45.6162 19.6917 42.1813 18.46C41.5654 18.2411 41.037 17.7087 40.5174 17.2644C39.5716 16.4386 38.6625 15.6221 37.3808 15.2887C36.9114 15.1694 36.4729 14.652 36.1864 14.2123C35.679 13.4432 35.2931 12.5956 34.5635 11.8715C34.7786 12.746 35.0176 13.6187 35.1997 14.5004C35.4071 15.4666 35.5649 16.4436 35.7319 17.4152C35.8576 18.1498 35.9337 18.8953 36.0833 19.6282C36.4167 21.2666 35.9946 22.2213 34.3852 22.6245C31.5413 23.3388 28.6631 23.9115 25.7867 24.477C24.8738 24.6589 23.9213 24.6278 22.9921 24.7509C20.9868 25.0223 19.177 24.5548 17.9516 22.924C16.845 21.4405 15.9813 19.7688 15.0385 18.1629C14.8653 17.8613 14.7951 17.4921 14.6844 17.1595C14.0329 20.5231 14.9868 22.6081 18.5329 25.984C16.2 26.992 14.3769 28.5746 12.8061 30.4554C12.122 31.2733 11.4325 32.0819 10.7705 32.9054C9.54787 34.4296 8.06519 34.826 6.2751 34.0043C5.56237 33.6749 4.83485 33.373 3.85086 32.9435C4.77108 35.1917 6.50169 35.7249 8.18552 36.0121C8.74175 36.9576 9.28763 37.7287 9.65153 38.5707C10.09 39.58 10.3797 40.653 10.7115 41.7133C11.5984 44.523 12.476 47.3694 15.3373 48.8613C17.3504 49.9115 19.17 51.2013 20.8565 52.7072C21.537 53.3173 22.3705 53.7554 23.3719 54.4236C22.3216 55.0235 21.4603 55.648 20.5062 56.0537ZM36.6558 54.1673C35.2061 55.0483 33.6348 55.5784 31.9289 55.8087C29.5838 56.1265 27.2549 56.5656 24.9189 56.9091C24.0356 57.0361 23.1325 57.0565 22.0108 57.1386C22.8256 56.2056 23.3863 55.4736 24.0403 54.8355C24.3184 54.5704 24.7889 54.4088 25.1762 54.3901C27.1442 54.2966 28.934 53.7362 30.6848 52.8067C31.6963 52.2673 32.9273 51.9397 34.0746 51.8798C35.8369 51.7965 37.3694 51.327 38.7427 50.2548C38.9765 50.0721 39.2797 49.9851 39.6879 49.7921C39.9808 50.4834 40.2336 51.0863 40.5065 51.7334C39.1726 52.5892 37.9269 53.4049 36.6558 54.1673Z" fill="white"/>
</svg>
