<svg width="75" height="171" viewBox="0 0 75 171" fill="none" xmlns="http://www.w3.org/2000/svg">
<path d="M49.6822 169.409C45.0876 167.844 40.6262 165.902 36.0983 164.149C31.1486 162.229 26.2876 160.142 20.9273 159.365C14.0355 158.378 9.03027 154.316 5.4789 148.501C1.45034 141.897 0.162971 134.606 0.00759888 126.926C-0.158867 118.869 2.52685 111.611 5.26805 104.308C5.81185 102.866 6.76627 101.578 7.52094 100.224C10.8281 94.298 14.3129 88.4715 17.3871 82.4231C20.894 75.5313 22.2258 68.0179 22.5809 60.3492C22.936 52.6583 22.9138 44.9452 23.4133 37.2543C23.7351 32.2158 24.7228 27.1884 27.1089 22.6605C30.2385 16.7563 34.9441 12.8498 41.9136 12.2949C43.7004 12.1507 45.587 10.1863 45.8423 8.02221C45.9644 6.94571 45.8534 5.8248 45.7535 4.7372C45.6203 3.22787 45.9977 1.94052 47.4071 1.26354C48.872 0.553268 50.1483 1.29683 51.0916 2.34005C51.7353 3.05032 52.1459 4.02693 52.49 4.94806C52.9228 6.14665 53.1448 7.42292 53.5332 8.64369C53.8772 9.698 54.6097 10.0753 55.6862 9.59812C63.366 6.24653 69.37 9.24298 74.6971 14.6699C74.8413 14.8253 74.9745 14.9807 75.1188 15.136V21.1178C74.1089 18.9759 72.7549 16.9894 71.0236 15.1915C66.1294 10.1197 59.859 9.25409 53.7885 12.7389C52.6787 13.3825 51.58 14.0928 50.3814 14.5367C49.4047 14.903 48.2949 14.9917 47.2406 15.0472C44.6215 15.2026 41.8692 14.226 39.3944 15.4801C37.3745 16.5011 35.5988 17.9993 33.6789 19.2201C31.7257 20.4631 30.5937 22.3053 29.6836 24.3473C27.797 28.5868 26.7649 33.0815 26.4763 37.6649C26.0324 44.8897 25.9325 52.1367 25.6994 59.3726C25.3998 68.2732 23.7351 76.8741 19.6732 84.8647C17.3427 89.437 14.9233 93.9761 12.2376 98.3487C9.57407 102.666 7.46545 107.172 5.73416 111.944C2.52684 120.811 2.40477 129.701 4.59107 138.734C6.34455 145.981 10.8503 150.598 18.1195 152.429C21.3157 153.239 24.5231 154.038 27.7637 154.704C34.5223 156.092 41.1256 157.856 47.3738 160.941C49.7155 162.096 52.379 162.739 54.9759 163.228C58.1722 163.838 61.3351 163.483 64.3093 161.84C66.307 160.731 68.4489 159.876 71.0125 158.666C72.4331 157.912 73.8092 157.079 75.1299 156.147V159.865C74.5972 160.198 74.0756 160.52 73.5318 160.83C71.1457 162.184 68.5266 163.117 66.1183 164.448C62.5892 166.402 58.838 166.801 54.9315 166.379C51.5134 166.013 48.306 164.926 45.243 163.427C40.6817 161.197 35.9651 159.476 30.9488 158.611C30.405 158.522 29.8501 158.522 29.2952 158.478C36.7197 161.629 43.8336 165.358 51.702 166.968C54.5542 167.545 57.5729 168.155 60.4029 167.811C65.6855 167.134 70.6463 165.603 75.0855 162.773V166.313C71.1901 168.122 67.2725 169.798 62.9665 170.563C58.3719 171.374 53.966 170.874 49.6822 169.409ZM51.9906 11.0852C51.4135 9.27628 50.903 7.64488 50.3925 6.02457C50.115 5.15893 49.8931 4.28218 49.5601 3.43874C49.2494 2.65078 48.7056 2.27345 47.618 3.03921C48.4059 6.05786 49.0829 9.27627 46.8078 12.1728C48.9053 12.7832 48.9053 12.7832 51.9906 11.0852ZM15.9443 155.126C15.8999 155.293 15.8555 155.459 15.8111 155.625C18.1528 156.269 20.4834 156.913 22.8251 157.557C22.8806 157.346 22.936 157.146 22.9915 156.935C20.6388 156.325 18.286 155.725 15.9443 155.126Z" fill="white"/>
</svg>
