<svg width="145" height="34" viewBox="0 0 145 34" fill="none" xmlns="http://www.w3.org/2000/svg">
<path d="M21.1729 5.3125C22.9741 5.79695 24.6164 6.74617 25.9353 8.06509C27.2542 9.38401 28.2035 11.0263 28.6879 12.8276" stroke="#1A1A1A" stroke-width="1.5" stroke-linecap="round" stroke-linejoin="round"/>
<path d="M20.0723 9.41907C21.1528 9.70975 22.1379 10.2792 22.9291 11.0704C23.7203 11.8616 24.2898 12.8468 24.5805 13.9273" stroke="#1A1A1A" stroke-width="1.5" stroke-linecap="round" stroke-linejoin="round"/>
<path d="M12.2825 16.5771C13.3843 18.8305 15.2105 20.6488 17.4686 21.7409C17.6339 21.8192 17.8168 21.853 17.9992 21.8391C18.1817 21.8251 18.3573 21.7638 18.5088 21.6612L21.8344 19.4448C21.9813 19.3467 22.1503 19.2868 22.3262 19.2705C22.502 19.2542 22.6792 19.282 22.8416 19.3513L29.0626 22.0182C29.2739 22.108 29.4503 22.2639 29.5653 22.4627C29.6802 22.6614 29.7275 22.8921 29.7001 23.12C29.5031 24.6585 28.7523 26.0724 27.5881 27.0972C26.4238 28.122 24.926 28.6874 23.375 28.6875C18.5845 28.6875 13.9903 26.7845 10.6029 23.3971C7.21551 20.0097 5.3125 15.4155 5.3125 10.625C5.31264 9.07411 5.87805 7.57643 6.90286 6.41237C7.92767 5.24831 9.34162 4.49767 10.88 4.301C11.1079 4.27351 11.3386 4.32082 11.5373 4.4358C11.7361 4.55077 11.892 4.7272 11.9818 4.9385L14.6508 11.1648C14.7195 11.3256 14.7473 11.501 14.7319 11.6752C14.7166 11.8494 14.6584 12.0171 14.5626 12.1635L12.3526 15.5401C12.2523 15.6922 12.1931 15.8676 12.1809 16.0494C12.1686 16.2311 12.2036 16.413 12.2825 16.5771V16.5771Z" stroke="#1A1A1A" stroke-width="1.5" stroke-linecap="round" stroke-linejoin="round"/>
<path d="M46.578 24.104C45.6633 23.2267 44.9587 22.1113 44.464 20.758C43.9787 19.4047 43.736 17.9533 43.736 16.404C43.736 14.8173 43.9973 13.3193 44.52 11.91C45.052 10.5007 45.8313 9.33867 46.858 8.424H48.51V8.578C47.4367 9.56733 46.6293 10.7527 46.088 12.134C45.5467 13.5153 45.276 14.9387 45.276 16.404C45.276 17.8133 45.528 19.176 46.032 20.492C46.536 21.808 47.2687 22.9607 48.23 23.95V24.104H46.578ZM50.6126 19.33C51.5086 18.5553 52.2133 17.9207 52.7266 17.426C53.2493 16.922 53.6833 16.3993 54.0286 15.858C54.374 15.3167 54.5466 14.7753 54.5466 14.234C54.5466 13.674 54.4113 13.2353 54.1406 12.918C53.8793 12.6007 53.464 12.442 52.8946 12.442C52.344 12.442 51.9146 12.6193 51.6066 12.974C51.308 13.3193 51.1493 13.786 51.1306 14.374H49.5906C49.6186 13.31 49.936 12.498 50.5426 11.938C51.1586 11.3687 51.938 11.084 52.8806 11.084C53.898 11.084 54.6913 11.364 55.2606 11.924C55.8393 12.484 56.1286 13.2307 56.1286 14.164C56.1286 14.836 55.956 15.4847 55.6106 16.11C55.2746 16.726 54.8686 17.2813 54.3926 17.776C53.926 18.2613 53.3286 18.826 52.6006 19.47L51.9706 20.03H56.4086V21.36H49.6046V20.198L50.6126 19.33ZM57.6007 12.75V11.294H60.5127V21.5H58.9027V12.75H57.6007ZM64.6932 18.728C64.7866 19.1947 64.9872 19.5493 65.2952 19.792C65.6032 20.0347 66.0186 20.156 66.5412 20.156C67.2039 20.156 67.6892 19.8947 67.9972 19.372C68.3052 18.8493 68.4592 17.958 68.4592 16.698C68.2352 17.0153 67.9179 17.2627 67.5072 17.44C67.1059 17.608 66.6672 17.692 66.1912 17.692C65.5846 17.692 65.0339 17.5707 64.5392 17.328C64.0446 17.076 63.6526 16.7073 63.3632 16.222C63.0832 15.7273 62.9432 15.13 62.9432 14.43C62.9432 13.4033 63.2419 12.5867 63.8392 11.98C64.4459 11.364 65.2766 11.056 66.3312 11.056C67.6006 11.056 68.5012 11.4807 69.0332 12.33C69.5746 13.17 69.8452 14.4627 69.8452 16.208C69.8452 17.412 69.7426 18.3967 69.5372 19.162C69.3412 19.9273 68.9959 20.506 68.5012 20.898C68.0066 21.29 67.3206 21.486 66.4432 21.486C65.4446 21.486 64.6746 21.2247 64.1332 20.702C63.5919 20.1793 63.2886 19.5213 63.2232 18.728H64.6932ZM66.4712 16.348C67.0312 16.348 67.4699 16.1753 67.7872 15.83C68.1139 15.4753 68.2772 15.0087 68.2772 14.43C68.2772 13.786 68.1046 13.2867 67.7592 12.932C67.4232 12.568 66.9612 12.386 66.3732 12.386C65.7852 12.386 65.3186 12.5727 64.9732 12.946C64.6372 13.31 64.4692 13.7907 64.4692 14.388C64.4692 14.9573 64.6326 15.4287 64.9592 15.802C65.2952 16.166 65.7992 16.348 66.4712 16.348ZM71.41 24.104V23.95C72.3713 22.9607 73.104 21.808 73.608 20.492C74.112 19.176 74.364 17.8133 74.364 16.404C74.364 14.9387 74.0933 13.5153 73.552 12.134C73.0106 10.7527 72.2033 9.56733 71.13 8.578V8.424H72.782C73.8086 9.33867 74.5833 10.5007 75.106 11.91C75.638 13.3193 75.904 14.8173 75.904 16.404C75.904 17.9533 75.6566 19.4047 75.162 20.758C74.6766 22.1113 73.9766 23.2267 73.062 24.104H71.41ZM88.6993 12.666H84.0093V15.452C84.2053 15.1907 84.4946 14.9713 84.8773 14.794C85.2693 14.6167 85.6846 14.528 86.1233 14.528C86.9073 14.528 87.542 14.696 88.0273 15.032C88.522 15.368 88.872 15.7927 89.0773 16.306C89.292 16.8193 89.3993 17.3607 89.3993 17.93C89.3993 18.6207 89.264 19.2367 88.9933 19.778C88.732 20.31 88.3353 20.73 87.8033 21.038C87.2806 21.346 86.6366 21.5 85.8713 21.5C84.854 21.5 84.0373 21.248 83.4213 20.744C82.8053 20.24 82.4366 19.5727 82.3153 18.742H83.8693C83.972 19.1807 84.2006 19.5307 84.5553 19.792C84.91 20.044 85.3533 20.17 85.8853 20.17C86.548 20.17 87.0426 19.9693 87.3693 19.568C87.7053 19.1667 87.8733 18.6347 87.8733 17.972C87.8733 17.3 87.7053 16.7867 87.3693 16.432C87.0333 16.068 86.5386 15.886 85.8853 15.886C85.428 15.886 85.0406 16.0027 84.7233 16.236C84.4153 16.46 84.1913 16.768 84.0513 17.16H82.5393V11.266H88.6993V12.666ZM97.6407 12.666H92.9507V15.452C93.1467 15.1907 93.436 14.9713 93.8187 14.794C94.2107 14.6167 94.626 14.528 95.0647 14.528C95.8487 14.528 96.4834 14.696 96.9687 15.032C97.4634 15.368 97.8134 15.7927 98.0187 16.306C98.2334 16.8193 98.3407 17.3607 98.3407 17.93C98.3407 18.6207 98.2054 19.2367 97.9347 19.778C97.6734 20.31 97.2767 20.73 96.7447 21.038C96.222 21.346 95.578 21.5 94.8127 21.5C93.7954 21.5 92.9787 21.248 92.3627 20.744C91.7467 20.24 91.378 19.5727 91.2567 18.742H92.8107C92.9134 19.1807 93.142 19.5307 93.4967 19.792C93.8514 20.044 94.2947 20.17 94.8267 20.17C95.4894 20.17 95.984 19.9693 96.3107 19.568C96.6467 19.1667 96.8147 18.6347 96.8147 17.972C96.8147 17.3 96.6467 16.7867 96.3107 16.432C95.9747 16.068 95.48 15.886 94.8267 15.886C94.3694 15.886 93.982 16.0027 93.6647 16.236C93.3567 16.46 93.1327 16.768 92.9927 17.16H91.4807V11.266H97.6407V12.666ZM106.582 12.666H101.892V15.452C102.088 15.1907 102.377 14.9713 102.76 14.794C103.152 14.6167 103.567 14.528 104.006 14.528C104.79 14.528 105.425 14.696 105.91 15.032C106.405 15.368 106.755 15.7927 106.96 16.306C107.175 16.8193 107.282 17.3607 107.282 17.93C107.282 18.6207 107.147 19.2367 106.876 19.778C106.615 20.31 106.218 20.73 105.686 21.038C105.163 21.346 104.519 21.5 103.754 21.5C102.737 21.5 101.92 21.248 101.304 20.744C100.688 20.24 100.319 19.5727 100.198 18.742H101.752C101.855 19.1807 102.083 19.5307 102.438 19.792C102.793 20.044 103.236 20.17 103.768 20.17C104.431 20.17 104.925 19.9693 105.252 19.568C105.588 19.1667 105.756 18.6347 105.756 17.972C105.756 17.3 105.588 16.7867 105.252 16.432C104.916 16.068 104.421 15.886 103.768 15.886C103.311 15.886 102.923 16.0027 102.606 16.236C102.298 16.46 102.074 16.768 101.934 17.16H100.422V11.266H106.582V12.666ZM115.076 15.76V17.104H109.322V15.76H115.076ZM117.133 16.264C117.133 14.6493 117.404 13.3893 117.945 12.484C118.496 11.5693 119.438 11.112 120.773 11.112C122.108 11.112 123.046 11.5693 123.587 12.484C124.138 13.3893 124.413 14.6493 124.413 16.264C124.413 17.8973 124.138 19.176 123.587 20.1C123.046 21.0147 122.108 21.472 120.773 21.472C119.438 21.472 118.496 21.0147 117.945 20.1C117.404 19.176 117.133 17.8973 117.133 16.264ZM122.845 16.264C122.845 15.508 122.794 14.8687 122.691 14.346C122.598 13.8233 122.402 13.3987 122.103 13.072C121.804 12.736 121.361 12.568 120.773 12.568C120.185 12.568 119.742 12.736 119.443 13.072C119.144 13.3987 118.944 13.8233 118.841 14.346C118.748 14.8687 118.701 15.508 118.701 16.264C118.701 17.048 118.748 17.706 118.841 18.238C118.934 18.77 119.13 19.1993 119.429 19.526C119.737 19.8527 120.185 20.016 120.773 20.016C121.361 20.016 121.804 19.8527 122.103 19.526C122.411 19.1993 122.612 18.77 122.705 18.238C122.798 17.706 122.845 17.048 122.845 16.264ZM125.892 12.75V11.294H128.804V21.5H127.194V12.75H125.892ZM130.786 12.75V11.294H133.698V21.5H132.088V12.75H130.786ZM135.695 19.372V18.168L140.399 11.42H142.331V17.986H143.633V19.372H142.331V21.5H140.763V19.372H135.695ZM140.833 13.044L137.529 17.986H140.833V13.044Z" fill="#1A1A1A"/>
</svg>
