<svg width="316" height="20" viewBox="0 0 316 20" fill="none" xmlns="http://www.w3.org/2000/svg">
<path d="M16 8.36364C16 14.0909 8.5 19 8.5 19C8.5 19 1 14.0909 1 8.36364C1 6.41068 1.79018 4.53771 3.1967 3.15676C4.60322 1.77581 6.51088 1 8.5 1C10.4891 1 12.3968 1.77581 13.8033 3.15676C15.2098 4.53771 16 6.41068 16 8.36364Z" stroke="#2B572E" stroke-linecap="round" stroke-linejoin="round"/>
<path d="M8.5 10.8182C9.88071 10.8182 11 9.71925 11 8.36364C11 7.00803 9.88071 5.90909 8.5 5.90909C7.11929 5.90909 6 7.00803 6 8.36364C6 9.71925 7.11929 10.8182 8.5 10.8182Z" stroke="#2B572E" stroke-linecap="round" stroke-linejoin="round"/>
<path d="M27.576 14.084C27.024 14.084 26.528 13.988 26.088 13.796C25.656 13.596 25.316 13.324 25.068 12.98C24.82 12.628 24.692 12.224 24.684 11.768H25.848C25.888 12.16 26.048 12.492 26.328 12.764C26.616 13.028 27.032 13.16 27.576 13.16C28.096 13.16 28.504 13.032 28.8 12.776C29.104 12.512 29.256 12.176 29.256 11.768C29.256 11.448 29.168 11.188 28.992 10.988C28.816 10.788 28.596 10.636 28.332 10.532C28.068 10.428 27.712 10.316 27.264 10.196C26.712 10.052 26.268 9.908 25.932 9.764C25.604 9.62 25.32 9.396 25.08 9.092C24.848 8.78 24.732 8.364 24.732 7.844C24.732 7.388 24.848 6.984 25.08 6.632C25.312 6.28 25.636 6.008 26.052 5.816C26.476 5.624 26.96 5.528 27.504 5.528C28.288 5.528 28.928 5.724 29.424 6.116C29.928 6.508 30.212 7.028 30.276 7.676H29.076C29.036 7.356 28.868 7.076 28.572 6.836C28.276 6.588 27.884 6.464 27.396 6.464C26.94 6.464 26.568 6.584 26.28 6.824C25.992 7.056 25.848 7.384 25.848 7.808C25.848 8.112 25.932 8.36 26.1 8.552C26.276 8.744 26.488 8.892 26.736 8.996C26.992 9.092 27.348 9.204 27.804 9.332C28.356 9.484 28.8 9.636 29.136 9.788C29.472 9.932 29.76 10.16 30 10.472C30.24 10.776 30.36 11.192 30.36 11.72C30.36 12.128 30.252 12.512 30.036 12.872C29.82 13.232 29.5 13.524 29.076 13.748C28.652 13.972 28.152 14.084 27.576 14.084ZM33.299 8.324V12.2C33.299 12.52 33.367 12.748 33.503 12.884C33.639 13.012 33.875 13.076 34.211 13.076H35.015V14H34.031C33.423 14 32.967 13.86 32.663 13.58C32.359 13.3 32.207 12.84 32.207 12.2V8.324H31.355V7.424H32.207V5.768H33.299V7.424H35.015V8.324H33.299ZM39.2061 14.108C38.5901 14.108 38.0301 13.968 37.5261 13.688C37.0301 13.408 36.6381 13.012 36.3501 12.5C36.0701 11.98 35.9301 11.38 35.9301 10.7C35.9301 10.028 36.0741 9.436 36.3621 8.924C36.6581 8.404 37.0581 8.008 37.5621 7.736C38.0661 7.456 38.6301 7.316 39.2541 7.316C39.8781 7.316 40.4421 7.456 40.9461 7.736C41.4501 8.008 41.8461 8.4 42.1341 8.912C42.4301 9.424 42.5781 10.02 42.5781 10.7C42.5781 11.38 42.4261 11.98 42.1221 12.5C41.8261 13.012 41.4221 13.408 40.9101 13.688C40.3981 13.968 39.8301 14.108 39.2061 14.108ZM39.2061 13.148C39.5981 13.148 39.9661 13.056 40.3101 12.872C40.6541 12.688 40.9301 12.412 41.1381 12.044C41.3541 11.676 41.4621 11.228 41.4621 10.7C41.4621 10.172 41.3581 9.724 41.1501 9.356C40.9421 8.988 40.6701 8.716 40.3341 8.54C39.9981 8.356 39.6341 8.264 39.2421 8.264C38.8421 8.264 38.4741 8.356 38.1381 8.54C37.8101 8.716 37.5461 8.988 37.3461 9.356C37.1461 9.724 37.0461 10.172 37.0461 10.7C37.0461 11.236 37.1421 11.688 37.3341 12.056C37.5341 12.424 37.7981 12.7 38.1261 12.884C38.4541 13.06 38.8141 13.148 39.2061 13.148ZM45.1058 8.492C45.2978 8.116 45.5698 7.824 45.9218 7.616C46.2818 7.408 46.7178 7.304 47.2298 7.304V8.432H46.9418C45.7178 8.432 45.1058 9.096 45.1058 10.424V14H44.0138V7.424H45.1058V8.492ZM54.4904 10.46C54.4904 10.668 54.4784 10.888 54.4544 11.12H49.1984C49.2384 11.768 49.4584 12.276 49.8584 12.644C50.2664 13.004 50.7584 13.184 51.3344 13.184C51.8064 13.184 52.1984 13.076 52.5104 12.86C52.8304 12.636 53.0544 12.34 53.1824 11.972H54.3584C54.1824 12.604 53.8304 13.12 53.3024 13.52C52.7744 13.912 52.1184 14.108 51.3344 14.108C50.7104 14.108 50.1504 13.968 49.6544 13.688C49.1664 13.408 48.7824 13.012 48.5024 12.5C48.2224 11.98 48.0824 11.38 48.0824 10.7C48.0824 10.02 48.2184 9.424 48.4904 8.912C48.7624 8.4 49.1424 8.008 49.6304 7.736C50.1264 7.456 50.6944 7.316 51.3344 7.316C51.9584 7.316 52.5104 7.452 52.9904 7.724C53.4704 7.996 53.8384 8.372 54.0944 8.852C54.3584 9.324 54.4904 9.86 54.4904 10.46ZM53.3624 10.232C53.3624 9.816 53.2704 9.46 53.0864 9.164C52.9024 8.86 52.6504 8.632 52.3304 8.48C52.0184 8.32 51.6704 8.24 51.2864 8.24C50.7344 8.24 50.2624 8.416 49.8704 8.768C49.4864 9.12 49.2664 9.608 49.2104 10.232H53.3624ZM60.223 13.112H63.151V14H59.131V5.636H60.223V13.112ZM67.1787 14.108C66.5627 14.108 66.0027 13.968 65.4987 13.688C65.0027 13.408 64.6107 13.012 64.3227 12.5C64.0427 11.98 63.9027 11.38 63.9027 10.7C63.9027 10.028 64.0467 9.436 64.3347 8.924C64.6307 8.404 65.0307 8.008 65.5347 7.736C66.0387 7.456 66.6027 7.316 67.2267 7.316C67.8507 7.316 68.4147 7.456 68.9187 7.736C69.4227 8.008 69.8187 8.4 70.1067 8.912C70.4027 9.424 70.5507 10.02 70.5507 10.7C70.5507 11.38 70.3987 11.98 70.0947 12.5C69.7987 13.012 69.3947 13.408 68.8827 13.688C68.3707 13.968 67.8027 14.108 67.1787 14.108ZM67.1787 13.148C67.5707 13.148 67.9387 13.056 68.2827 12.872C68.6267 12.688 68.9027 12.412 69.1107 12.044C69.3267 11.676 69.4347 11.228 69.4347 10.7C69.4347 10.172 69.3307 9.724 69.1227 9.356C68.9147 8.988 68.6427 8.716 68.3067 8.54C67.9707 8.356 67.6067 8.264 67.2147 8.264C66.8147 8.264 66.4467 8.356 66.1107 8.54C65.7827 8.716 65.5187 8.988 65.3187 9.356C65.1187 9.724 65.0187 10.172 65.0187 10.7C65.0187 11.236 65.1147 11.688 65.3067 12.056C65.5067 12.424 65.7707 12.7 66.0987 12.884C66.4267 13.06 66.7867 13.148 67.1787 13.148ZM71.5785 10.7C71.5785 10.02 71.7145 9.428 71.9865 8.924C72.2585 8.412 72.6345 8.016 73.1145 7.736C73.6025 7.456 74.1585 7.316 74.7825 7.316C75.5905 7.316 76.2545 7.512 76.7745 7.904C77.3025 8.296 77.6505 8.84 77.8185 9.536H76.6425C76.5305 9.136 76.3105 8.82 75.9825 8.588C75.6625 8.356 75.2625 8.24 74.7825 8.24C74.1585 8.24 73.6545 8.456 73.2705 8.888C72.8865 9.312 72.6945 9.916 72.6945 10.7C72.6945 11.492 72.8865 12.104 73.2705 12.536C73.6545 12.968 74.1585 13.184 74.7825 13.184C75.2625 13.184 75.6625 13.072 75.9825 12.848C76.3025 12.624 76.5225 12.304 76.6425 11.888H77.8185C77.6425 12.56 77.2905 13.1 76.7625 13.508C76.2345 13.908 75.5745 14.108 74.7825 14.108C74.1585 14.108 73.6025 13.968 73.1145 13.688C72.6345 13.408 72.2585 13.012 71.9865 12.5C71.7145 11.988 71.5785 11.388 71.5785 10.7ZM78.8676 10.688C78.8676 10.016 79.0036 9.428 79.2756 8.924C79.5476 8.412 79.9196 8.016 80.3916 7.736C80.8716 7.456 81.4036 7.316 81.9876 7.316C82.5636 7.316 83.0636 7.44 83.4876 7.688C83.9116 7.936 84.2276 8.248 84.4356 8.624V7.424H85.5396V14H84.4356V12.776C84.2196 13.16 83.8956 13.48 83.4636 13.736C83.0396 13.984 82.5436 14.108 81.9756 14.108C81.3916 14.108 80.8636 13.964 80.3916 13.676C79.9196 13.388 79.5476 12.984 79.2756 12.464C79.0036 11.944 78.8676 11.352 78.8676 10.688ZM84.4356 10.7C84.4356 10.204 84.3356 9.772 84.1356 9.404C83.9356 9.036 83.6636 8.756 83.3196 8.564C82.9836 8.364 82.6116 8.264 82.2036 8.264C81.7956 8.264 81.4236 8.36 81.0876 8.552C80.7516 8.744 80.4836 9.024 80.2836 9.392C80.0836 9.76 79.9836 10.192 79.9836 10.688C79.9836 11.192 80.0836 11.632 80.2836 12.008C80.4836 12.376 80.7516 12.66 81.0876 12.86C81.4236 13.052 81.7956 13.148 82.2036 13.148C82.6116 13.148 82.9836 13.052 83.3196 12.86C83.6636 12.66 83.9356 12.376 84.1356 12.008C84.3356 11.632 84.4356 11.196 84.4356 10.7ZM88.7169 8.324V12.2C88.7169 12.52 88.7849 12.748 88.9209 12.884C89.0569 13.012 89.2929 13.076 89.6289 13.076H90.4329V14H89.4489C88.8409 14 88.3849 13.86 88.0809 13.58C87.7769 13.3 87.6249 12.84 87.6249 12.2V8.324H86.7729V7.424H87.6249V5.768H88.7169V7.424H90.4329V8.324H88.7169ZM92.32 6.356C92.112 6.356 91.936 6.284 91.792 6.14C91.648 5.996 91.576 5.82 91.576 5.612C91.576 5.404 91.648 5.228 91.792 5.084C91.936 4.94 92.112 4.868 92.32 4.868C92.52 4.868 92.688 4.94 92.824 5.084C92.968 5.228 93.04 5.404 93.04 5.612C93.04 5.82 92.968 5.996 92.824 6.14C92.688 6.284 92.52 6.356 92.32 6.356ZM92.848 7.424V14H91.756V7.424H92.848ZM97.5772 14.108C96.9612 14.108 96.4012 13.968 95.8972 13.688C95.4012 13.408 95.0092 13.012 94.7212 12.5C94.4412 11.98 94.3012 11.38 94.3012 10.7C94.3012 10.028 94.4452 9.436 94.7332 8.924C95.0292 8.404 95.4292 8.008 95.9332 7.736C96.4372 7.456 97.0012 7.316 97.6252 7.316C98.2492 7.316 98.8132 7.456 99.3172 7.736C99.8212 8.008 100.217 8.4 100.505 8.912C100.801 9.424 100.949 10.02 100.949 10.7C100.949 11.38 100.797 11.98 100.493 12.5C100.197 13.012 99.7932 13.408 99.2812 13.688C98.7692 13.968 98.2012 14.108 97.5772 14.108ZM97.5772 13.148C97.9692 13.148 98.3372 13.056 98.6812 12.872C99.0252 12.688 99.3012 12.412 99.5092 12.044C99.7252 11.676 99.8332 11.228 99.8332 10.7C99.8332 10.172 99.7292 9.724 99.5212 9.356C99.3132 8.988 99.0412 8.716 98.7052 8.54C98.3692 8.356 98.0052 8.264 97.6132 8.264C97.2132 8.264 96.8452 8.356 96.5092 8.54C96.1812 8.716 95.9172 8.988 95.7172 9.356C95.5172 9.724 95.4172 10.172 95.4172 10.7C95.4172 11.236 95.5132 11.688 95.7052 12.056C95.9052 12.424 96.1692 12.7 96.4972 12.884C96.8252 13.06 97.1852 13.148 97.5772 13.148ZM105.589 7.304C106.389 7.304 107.037 7.548 107.533 8.036C108.029 8.516 108.277 9.212 108.277 10.124V14H107.197V10.28C107.197 9.624 107.033 9.124 106.705 8.78C106.377 8.428 105.929 8.252 105.361 8.252C104.785 8.252 104.325 8.432 103.981 8.792C103.645 9.152 103.477 9.676 103.477 10.364V14H102.385V7.424H103.477V8.36C103.693 8.024 103.985 7.764 104.353 7.58C104.729 7.396 105.141 7.304 105.589 7.304ZM110.409 14.072C110.201 14.072 110.025 14 109.881 13.856C109.737 13.712 109.665 13.536 109.665 13.328C109.665 13.12 109.737 12.944 109.881 12.8C110.025 12.656 110.201 12.584 110.409 12.584C110.609 12.584 110.777 12.656 110.913 12.8C111.057 12.944 111.129 13.12 111.129 13.328C111.129 13.536 111.057 13.712 110.913 13.856C110.777 14 110.609 14.072 110.409 14.072ZM110.409 8.936C110.201 8.936 110.025 8.864 109.881 8.72C109.737 8.576 109.665 8.4 109.665 8.192C109.665 7.984 109.737 7.808 109.881 7.664C110.025 7.52 110.201 7.448 110.409 7.448C110.609 7.448 110.777 7.52 110.913 7.664C111.057 7.808 111.129 7.984 111.129 8.192C111.129 8.4 111.057 8.576 110.913 8.72C110.777 8.864 110.609 8.936 110.409 8.936ZM116.907 13.112H119.835V14H115.815V5.636H116.907V13.112ZM121.558 6.356C121.35 6.356 121.174 6.284 121.03 6.14C120.886 5.996 120.814 5.82 120.814 5.612C120.814 5.404 120.886 5.228 121.03 5.084C121.174 4.94 121.35 4.868 121.558 4.868C121.758 4.868 121.926 4.94 122.062 5.084C122.206 5.228 122.278 5.404 122.278 5.612C122.278 5.82 122.206 5.996 122.062 6.14C121.926 6.284 121.758 6.356 121.558 6.356ZM122.086 7.424V14H120.994V7.424H122.086ZM127.151 7.304C127.951 7.304 128.599 7.548 129.095 8.036C129.591 8.516 129.839 9.212 129.839 10.124V14H128.759V10.28C128.759 9.624 128.595 9.124 128.267 8.78C127.939 8.428 127.491 8.252 126.923 8.252C126.347 8.252 125.887 8.432 125.543 8.792C125.207 9.152 125.039 9.676 125.039 10.364V14H123.947V7.424H125.039V8.36C125.255 8.024 125.547 7.764 125.915 7.58C126.291 7.396 126.703 7.304 127.151 7.304ZM131.215 10.7C131.215 10.02 131.351 9.428 131.623 8.924C131.895 8.412 132.271 8.016 132.751 7.736C133.239 7.456 133.795 7.316 134.419 7.316C135.227 7.316 135.891 7.512 136.411 7.904C136.939 8.296 137.287 8.84 137.455 9.536H136.279C136.167 9.136 135.947 8.82 135.619 8.588C135.299 8.356 134.899 8.24 134.419 8.24C133.795 8.24 133.291 8.456 132.907 8.888C132.523 9.312 132.331 9.916 132.331 10.7C132.331 11.492 132.523 12.104 132.907 12.536C133.291 12.968 133.795 13.184 134.419 13.184C134.899 13.184 135.299 13.072 135.619 12.848C135.939 12.624 136.159 12.304 136.279 11.888H137.455C137.279 12.56 136.927 13.1 136.399 13.508C135.871 13.908 135.211 14.108 134.419 14.108C133.795 14.108 133.239 13.968 132.751 13.688C132.271 13.408 131.895 13.012 131.623 12.5C131.351 11.988 131.215 11.388 131.215 10.7ZM141.78 14.108C141.164 14.108 140.604 13.968 140.1 13.688C139.604 13.408 139.212 13.012 138.924 12.5C138.644 11.98 138.504 11.38 138.504 10.7C138.504 10.028 138.648 9.436 138.936 8.924C139.232 8.404 139.632 8.008 140.136 7.736C140.64 7.456 141.204 7.316 141.828 7.316C142.452 7.316 143.016 7.456 143.52 7.736C144.024 8.008 144.42 8.4 144.708 8.912C145.004 9.424 145.152 10.02 145.152 10.7C145.152 11.38 145 11.98 144.696 12.5C144.4 13.012 143.996 13.408 143.484 13.688C142.972 13.968 142.404 14.108 141.78 14.108ZM141.78 13.148C142.172 13.148 142.54 13.056 142.884 12.872C143.228 12.688 143.504 12.412 143.712 12.044C143.928 11.676 144.036 11.228 144.036 10.7C144.036 10.172 143.932 9.724 143.724 9.356C143.516 8.988 143.244 8.716 142.908 8.54C142.572 8.356 142.208 8.264 141.816 8.264C141.416 8.264 141.048 8.356 140.712 8.54C140.384 8.716 140.12 8.988 139.92 9.356C139.72 9.724 139.62 10.172 139.62 10.7C139.62 11.236 139.716 11.688 139.908 12.056C140.108 12.424 140.372 12.7 140.7 12.884C141.028 13.06 141.388 13.148 141.78 13.148ZM147.68 5.12V14H146.588V5.12H147.68ZM152.745 7.304C153.545 7.304 154.193 7.548 154.689 8.036C155.185 8.516 155.433 9.212 155.433 10.124V14H154.353V10.28C154.353 9.624 154.189 9.124 153.861 8.78C153.533 8.428 153.085 8.252 152.517 8.252C151.941 8.252 151.481 8.432 151.137 8.792C150.801 9.152 150.633 9.676 150.633 10.364V14H149.541V7.424H150.633V8.36C150.849 8.024 151.141 7.764 151.509 7.58C151.885 7.396 152.297 7.304 152.745 7.304ZM161.777 9.14V10.064H156.989V9.14H161.777ZM166.822 7.508C166.878 6.772 167.162 6.196 167.674 5.78C168.186 5.364 168.85 5.156 169.666 5.156C170.21 5.156 170.678 5.256 171.07 5.456C171.47 5.648 171.77 5.912 171.97 6.248C172.178 6.584 172.282 6.964 172.282 7.388C172.282 7.884 172.138 8.312 171.85 8.672C171.57 9.032 171.202 9.264 170.746 9.368V9.428C171.266 9.556 171.678 9.808 171.982 10.184C172.286 10.56 172.438 11.052 172.438 11.66C172.438 12.116 172.334 12.528 172.126 12.896C171.918 13.256 171.606 13.54 171.19 13.748C170.774 13.956 170.274 14.06 169.69 14.06C168.842 14.06 168.146 13.84 167.602 13.4C167.058 12.952 166.754 12.32 166.69 11.504H167.746C167.802 11.984 167.998 12.376 168.334 12.68C168.67 12.984 169.118 13.136 169.678 13.136C170.238 13.136 170.662 12.992 170.95 12.704C171.246 12.408 171.394 12.028 171.394 11.564C171.394 10.964 171.194 10.532 170.794 10.268C170.394 10.004 169.79 9.872 168.982 9.872H168.706V8.96H168.994C169.73 8.952 170.286 8.832 170.662 8.6C171.038 8.36 171.226 7.992 171.226 7.496C171.226 7.072 171.086 6.732 170.806 6.476C170.534 6.22 170.142 6.092 169.63 6.092C169.134 6.092 168.734 6.22 168.43 6.476C168.126 6.732 167.946 7.076 167.89 7.508H166.822ZM173.648 12.068V11.24L177.86 5.408H179.168V11.12H180.368V12.068H179.168V14H178.088V12.068H173.648ZM178.136 6.548L174.908 11.12H178.136V6.548ZM181.195 12.068V11.24L185.407 5.408H186.715V11.12H187.915V12.068H186.715V14H185.635V12.068H181.195ZM185.683 6.548L182.455 11.12H185.683V6.548ZM190.314 12.488L188.97 15.716H188.238L189.114 12.488H190.314ZM195.856 5.636V14H194.764V5.636H195.856ZM198.809 5.12V14H197.717V5.12H198.809ZM201.762 5.12V14H200.67V5.12H201.762ZM204.187 6.356C203.979 6.356 203.803 6.284 203.659 6.14C203.515 5.996 203.443 5.82 203.443 5.612C203.443 5.404 203.515 5.228 203.659 5.084C203.803 4.94 203.979 4.868 204.187 4.868C204.387 4.868 204.555 4.94 204.691 5.084C204.835 5.228 204.907 5.404 204.907 5.612C204.907 5.82 204.835 5.996 204.691 6.14C204.555 6.284 204.387 6.356 204.187 6.356ZM204.715 7.424V14H203.623V7.424H204.715ZM209.78 7.304C210.58 7.304 211.228 7.548 211.724 8.036C212.22 8.516 212.468 9.212 212.468 10.124V14H211.388V10.28C211.388 9.624 211.224 9.124 210.896 8.78C210.568 8.428 210.12 8.252 209.552 8.252C208.976 8.252 208.516 8.432 208.172 8.792C207.836 9.152 207.668 9.676 207.668 10.364V14H206.576V7.424H207.668V8.36C207.884 8.024 208.176 7.764 208.544 7.58C208.92 7.396 209.332 7.304 209.78 7.304ZM217.12 14.108C216.504 14.108 215.944 13.968 215.44 13.688C214.944 13.408 214.552 13.012 214.264 12.5C213.984 11.98 213.844 11.38 213.844 10.7C213.844 10.028 213.988 9.436 214.276 8.924C214.572 8.404 214.972 8.008 215.476 7.736C215.98 7.456 216.544 7.316 217.168 7.316C217.792 7.316 218.356 7.456 218.86 7.736C219.364 8.008 219.76 8.4 220.048 8.912C220.344 9.424 220.492 10.02 220.492 10.7C220.492 11.38 220.34 11.98 220.036 12.5C219.74 13.012 219.336 13.408 218.824 13.688C218.312 13.968 217.744 14.108 217.12 14.108ZM217.12 13.148C217.512 13.148 217.88 13.056 218.224 12.872C218.568 12.688 218.844 12.412 219.052 12.044C219.268 11.676 219.376 11.228 219.376 10.7C219.376 10.172 219.272 9.724 219.064 9.356C218.856 8.988 218.584 8.716 218.248 8.54C217.912 8.356 217.548 8.264 217.156 8.264C216.756 8.264 216.388 8.356 216.052 8.54C215.724 8.716 215.46 8.988 215.26 9.356C215.06 9.724 214.96 10.172 214.96 10.7C214.96 11.236 215.056 11.688 215.248 12.056C215.448 12.424 215.712 12.7 216.04 12.884C216.368 13.06 216.728 13.148 217.12 13.148ZM222.492 6.356C222.284 6.356 222.108 6.284 221.964 6.14C221.82 5.996 221.748 5.82 221.748 5.612C221.748 5.404 221.82 5.228 221.964 5.084C222.108 4.94 222.284 4.868 222.492 4.868C222.692 4.868 222.86 4.94 222.996 5.084C223.14 5.228 223.212 5.404 223.212 5.612C223.212 5.82 223.14 5.996 222.996 6.14C222.86 6.284 222.692 6.356 222.492 6.356ZM223.02 7.424V14H221.928V7.424H223.02ZM227.209 14.108C226.705 14.108 226.253 14.024 225.853 13.856C225.453 13.68 225.137 13.44 224.905 13.136C224.673 12.824 224.545 12.468 224.521 12.068H225.649C225.681 12.396 225.833 12.664 226.105 12.872C226.385 13.08 226.749 13.184 227.197 13.184C227.613 13.184 227.941 13.092 228.181 12.908C228.421 12.724 228.541 12.492 228.541 12.212C228.541 11.924 228.413 11.712 228.157 11.576C227.901 11.432 227.505 11.292 226.969 11.156C226.481 11.028 226.081 10.9 225.769 10.772C225.465 10.636 225.201 10.44 224.977 10.184C224.761 9.92 224.653 9.576 224.653 9.152C224.653 8.816 224.753 8.508 224.953 8.228C225.153 7.948 225.437 7.728 225.805 7.568C226.173 7.4 226.593 7.316 227.065 7.316C227.793 7.316 228.381 7.5 228.829 7.868C229.277 8.236 229.517 8.74 229.549 9.38H228.457C228.433 9.036 228.293 8.76 228.037 8.552C227.789 8.344 227.453 8.24 227.029 8.24C226.637 8.24 226.325 8.324 226.093 8.492C225.861 8.66 225.745 8.88 225.745 9.152C225.745 9.368 225.813 9.548 225.949 9.692C226.093 9.828 226.269 9.94 226.477 10.028C226.693 10.108 226.989 10.2 227.365 10.304C227.837 10.432 228.221 10.56 228.517 10.688C228.813 10.808 229.065 10.992 229.273 11.24C229.489 11.488 229.601 11.812 229.609 12.212C229.609 12.572 229.509 12.896 229.309 13.184C229.109 13.472 228.825 13.7 228.457 13.868C228.097 14.028 227.681 14.108 227.209 14.108ZM232.279 12.488L230.935 15.716H230.203L231.079 12.488H232.279ZM236.321 9.812C236.321 8.996 236.505 8.264 236.873 7.616C237.241 6.96 237.741 6.448 238.373 6.08C239.013 5.712 239.721 5.528 240.497 5.528C241.409 5.528 242.205 5.748 242.885 6.188C243.565 6.628 244.061 7.252 244.373 8.06H243.065C242.833 7.556 242.497 7.168 242.057 6.896C241.625 6.624 241.105 6.488 240.497 6.488C239.913 6.488 239.389 6.624 238.925 6.896C238.461 7.168 238.097 7.556 237.833 8.06C237.569 8.556 237.437 9.14 237.437 9.812C237.437 10.476 237.569 11.06 237.833 11.564C238.097 12.06 238.461 12.444 238.925 12.716C239.389 12.988 239.913 13.124 240.497 13.124C241.105 13.124 241.625 12.992 242.057 12.728C242.497 12.456 242.833 12.068 243.065 11.564H244.373C244.061 12.364 243.565 12.984 242.885 13.424C242.205 13.856 241.409 14.072 240.497 14.072C239.721 14.072 239.013 13.892 238.373 13.532C237.741 13.164 237.241 12.656 236.873 12.008C236.505 11.36 236.321 10.628 236.321 9.812ZM249.262 7.304C249.758 7.304 250.206 7.412 250.606 7.628C251.006 7.836 251.318 8.152 251.542 8.576C251.774 9 251.89 9.516 251.89 10.124V14H250.81V10.28C250.81 9.624 250.646 9.124 250.318 8.78C249.99 8.428 249.542 8.252 248.974 8.252C248.398 8.252 247.938 8.432 247.594 8.792C247.258 9.152 247.09 9.676 247.09 10.364V14H245.998V5.12H247.09V8.36C247.306 8.024 247.602 7.764 247.978 7.58C248.362 7.396 248.79 7.304 249.262 7.304ZM254.238 6.356C254.03 6.356 253.854 6.284 253.71 6.14C253.566 5.996 253.494 5.82 253.494 5.612C253.494 5.404 253.566 5.228 253.71 5.084C253.854 4.94 254.03 4.868 254.238 4.868C254.438 4.868 254.606 4.94 254.742 5.084C254.886 5.228 254.958 5.404 254.958 5.612C254.958 5.82 254.886 5.996 254.742 6.14C254.606 6.284 254.438 6.356 254.238 6.356ZM254.766 7.424V14H253.674V7.424H254.766ZM256.219 10.7C256.219 10.02 256.355 9.428 256.627 8.924C256.899 8.412 257.275 8.016 257.755 7.736C258.243 7.456 258.799 7.316 259.423 7.316C260.231 7.316 260.895 7.512 261.415 7.904C261.943 8.296 262.291 8.84 262.459 9.536H261.283C261.171 9.136 260.951 8.82 260.623 8.588C260.303 8.356 259.903 8.24 259.423 8.24C258.799 8.24 258.295 8.456 257.911 8.888C257.527 9.312 257.335 9.916 257.335 10.7C257.335 11.492 257.527 12.104 257.911 12.536C258.295 12.968 258.799 13.184 259.423 13.184C259.903 13.184 260.303 13.072 260.623 12.848C260.943 12.624 261.163 12.304 261.283 11.888H262.459C262.283 12.56 261.931 13.1 261.403 13.508C260.875 13.908 260.215 14.108 259.423 14.108C258.799 14.108 258.243 13.968 257.755 13.688C257.275 13.408 256.899 13.012 256.627 12.5C256.355 11.988 256.219 11.388 256.219 10.7ZM263.508 10.688C263.508 10.016 263.644 9.428 263.916 8.924C264.188 8.412 264.56 8.016 265.032 7.736C265.512 7.456 266.044 7.316 266.628 7.316C267.204 7.316 267.704 7.44 268.128 7.688C268.552 7.936 268.868 8.248 269.076 8.624V7.424H270.18V14H269.076V12.776C268.86 13.16 268.536 13.48 268.104 13.736C267.68 13.984 267.184 14.108 266.616 14.108C266.032 14.108 265.504 13.964 265.032 13.676C264.56 13.388 264.188 12.984 263.916 12.464C263.644 11.944 263.508 11.352 263.508 10.688ZM269.076 10.7C269.076 10.204 268.976 9.772 268.776 9.404C268.576 9.036 268.304 8.756 267.96 8.564C267.624 8.364 267.252 8.264 266.844 8.264C266.436 8.264 266.064 8.36 265.728 8.552C265.392 8.744 265.124 9.024 264.924 9.392C264.724 9.76 264.624 10.192 264.624 10.688C264.624 11.192 264.724 11.632 264.924 12.008C265.124 12.376 265.392 12.66 265.728 12.86C266.064 13.052 266.436 13.148 266.844 13.148C267.252 13.148 267.624 13.052 267.96 12.86C268.304 12.66 268.576 12.376 268.776 12.008C268.976 11.632 269.076 11.196 269.076 10.7ZM274.738 7.316C275.306 7.316 275.802 7.44 276.226 7.688C276.658 7.936 276.978 8.248 277.186 8.624V7.424H278.29V14.144C278.29 14.744 278.162 15.276 277.906 15.74C277.65 16.212 277.282 16.58 276.802 16.844C276.33 17.108 275.778 17.24 275.146 17.24C274.282 17.24 273.562 17.036 272.986 16.628C272.41 16.22 272.07 15.664 271.966 14.96H273.046C273.166 15.36 273.414 15.68 273.79 15.92C274.166 16.168 274.618 16.292 275.146 16.292C275.746 16.292 276.234 16.104 276.61 15.728C276.994 15.352 277.186 14.824 277.186 14.144V12.764C276.97 13.148 276.65 13.468 276.226 13.724C275.802 13.98 275.306 14.108 274.738 14.108C274.154 14.108 273.622 13.964 273.142 13.676C272.67 13.388 272.298 12.984 272.026 12.464C271.754 11.944 271.618 11.352 271.618 10.688C271.618 10.016 271.754 9.428 272.026 8.924C272.298 8.412 272.67 8.016 273.142 7.736C273.622 7.456 274.154 7.316 274.738 7.316ZM277.186 10.7C277.186 10.204 277.086 9.772 276.886 9.404C276.686 9.036 276.414 8.756 276.07 8.564C275.734 8.364 275.362 8.264 274.954 8.264C274.546 8.264 274.174 8.36 273.838 8.552C273.502 8.744 273.234 9.024 273.034 9.392C272.834 9.76 272.734 10.192 272.734 10.688C272.734 11.192 272.834 11.632 273.034 12.008C273.234 12.376 273.502 12.66 273.838 12.86C274.174 13.052 274.546 13.148 274.954 13.148C275.362 13.148 275.734 13.052 276.07 12.86C276.414 12.66 276.686 12.376 276.886 12.008C277.086 11.632 277.186 11.196 277.186 10.7ZM283.003 14.108C282.387 14.108 281.827 13.968 281.323 13.688C280.827 13.408 280.435 13.012 280.147 12.5C279.867 11.98 279.727 11.38 279.727 10.7C279.727 10.028 279.871 9.436 280.159 8.924C280.455 8.404 280.855 8.008 281.359 7.736C281.863 7.456 282.427 7.316 283.051 7.316C283.675 7.316 284.239 7.456 284.743 7.736C285.247 8.008 285.643 8.4 285.931 8.912C286.227 9.424 286.375 10.02 286.375 10.7C286.375 11.38 286.223 11.98 285.919 12.5C285.623 13.012 285.219 13.408 284.707 13.688C284.195 13.968 283.627 14.108 283.003 14.108ZM283.003 13.148C283.395 13.148 283.763 13.056 284.107 12.872C284.451 12.688 284.727 12.412 284.935 12.044C285.151 11.676 285.259 11.228 285.259 10.7C285.259 10.172 285.155 9.724 284.947 9.356C284.739 8.988 284.467 8.716 284.131 8.54C283.795 8.356 283.431 8.264 283.039 8.264C282.639 8.264 282.271 8.356 281.935 8.54C281.607 8.716 281.343 8.988 281.143 9.356C280.943 9.724 280.843 10.172 280.843 10.7C280.843 11.236 280.939 11.688 281.131 12.056C281.331 12.424 281.595 12.7 281.923 12.884C282.251 13.06 282.611 13.148 283.003 13.148ZM288.939 12.488L287.595 15.716H286.863L287.739 12.488H288.939ZM294.457 5.636V10.928C294.457 11.672 294.637 12.224 294.997 12.584C295.365 12.944 295.873 13.124 296.521 13.124C297.161 13.124 297.661 12.944 298.021 12.584C298.389 12.224 298.573 11.672 298.573 10.928V5.636H299.665V10.916C299.665 11.612 299.525 12.2 299.245 12.68C298.965 13.152 298.585 13.504 298.105 13.736C297.633 13.968 297.101 14.084 296.509 14.084C295.917 14.084 295.381 13.968 294.901 13.736C294.429 13.504 294.053 13.152 293.773 12.68C293.501 12.2 293.365 11.612 293.365 10.916V5.636H294.457ZM304.139 14.084C303.587 14.084 303.091 13.988 302.651 13.796C302.219 13.596 301.879 13.324 301.631 12.98C301.383 12.628 301.255 12.224 301.247 11.768H302.411C302.451 12.16 302.611 12.492 302.891 12.764C303.179 13.028 303.595 13.16 304.139 13.16C304.659 13.16 305.067 13.032 305.363 12.776C305.667 12.512 305.819 12.176 305.819 11.768C305.819 11.448 305.731 11.188 305.555 10.988C305.379 10.788 305.159 10.636 304.895 10.532C304.631 10.428 304.275 10.316 303.827 10.196C303.275 10.052 302.831 9.908 302.495 9.764C302.167 9.62 301.883 9.396 301.643 9.092C301.411 8.78 301.295 8.364 301.295 7.844C301.295 7.388 301.411 6.984 301.643 6.632C301.875 6.28 302.199 6.008 302.615 5.816C303.039 5.624 303.523 5.528 304.067 5.528C304.851 5.528 305.491 5.724 305.987 6.116C306.491 6.508 306.775 7.028 306.839 7.676H305.639C305.599 7.356 305.431 7.076 305.135 6.836C304.839 6.588 304.447 6.464 303.959 6.464C303.503 6.464 303.131 6.584 302.843 6.824C302.555 7.056 302.411 7.384 302.411 7.808C302.411 8.112 302.495 8.36 302.663 8.552C302.839 8.744 303.051 8.892 303.299 8.996C303.555 9.092 303.911 9.204 304.367 9.332C304.919 9.484 305.363 9.636 305.699 9.788C306.035 9.932 306.323 10.16 306.562 10.472C306.803 10.776 306.923 11.192 306.923 11.72C306.923 12.128 306.815 12.512 306.599 12.872C306.383 13.232 306.063 13.524 305.639 13.748C305.215 13.972 304.715 14.084 304.139 14.084ZM313.473 12.14H309.825L309.153 14H308.001L311.025 5.684H312.285L315.297 14H314.145L313.473 12.14ZM313.161 11.252L311.649 7.028L310.137 11.252H313.161Z" fill="#2B572E"/>
</svg>
