<svg width="24" height="82" viewBox="0 0 24 82" fill="none" xmlns="http://www.w3.org/2000/svg">
<path d="M2.36718 0.083252C2.58914 0.915601 2.8111 1.74795 3.04415 2.5803C4.17615 6.73095 5.14167 10.9149 7.29468 14.7326C8.8262 17.4405 10.957 19.5047 13.1544 21.5911C15.4739 23.7996 17.7268 26.0858 19.9353 28.3942C21.8885 30.4362 22.8652 32.9888 23.5976 35.6967C23.753 36.2738 23.9306 36.8509 24.0859 37.428V53.5423C22.3879 55.9394 19.7799 56.6275 17.1275 57.2268C14.3308 57.8594 12.6106 56.1947 13.1877 53.3869C13.3653 52.5101 13.7426 51.6778 14.0201 50.8455C10.7018 48.7701 10.1691 46.0844 12.5218 43.6872C14.4529 41.7229 19.1584 41.6119 21.145 43.5097C21.8885 44.231 22.1105 45.0634 21.4335 45.9623C20.9896 46.5394 20.4902 47.0721 19.9353 47.7269C21.2449 47.9933 22.4656 48.2485 24.0193 48.5593C22.965 45.1411 21.944 41.8672 20.8231 38.2381C19.4692 38.9817 18.3261 39.7253 17.0942 40.2691C15.7624 40.8462 14.3641 41.4344 12.9436 41.6563C10.8127 41.9893 8.62644 42.0447 7.91617 39.1371C7.30578 39.5144 6.93955 39.7363 6.39574 40.0693C8.59315 42.3555 8.89279 44.9524 8.3157 47.8157C8.12703 48.7479 8.39338 49.8133 8.63754 50.7678C9.35891 53.6865 10.1691 56.5831 11.0236 59.8237C11.5785 59.7127 12.422 59.4575 13.2765 59.402C14.9967 59.2799 16.7391 59.069 18.4371 59.2466C19.7133 59.3798 20.8564 60.201 21.145 61.6549C21.4113 62.9755 20.69 63.93 19.7244 64.729C19.2472 65.1174 18.77 65.5059 18.1374 66.0275C18.7811 66.649 19.3249 67.1262 19.8243 67.6367C20.6789 68.5134 21.4557 69.479 20.923 70.7996C20.3681 72.1647 19.3471 73.1524 17.8489 73.219C16.5837 73.2856 15.3074 73.0081 14.0423 72.8749C13.5207 72.8194 12.999 72.7196 12.2444 72.6086C12.5107 73.3522 12.7216 73.8405 12.8659 74.3399C13.5539 76.848 12.3443 78.4573 9.72514 78.5238C8.00495 78.5682 6.46233 78.0466 5.17496 76.8924C4.56458 76.3486 3.99858 75.7604 3.36599 75.15C2.93317 76.9701 2.85549 77.0811 5.33034 78.7902C6.56222 79.6336 8.13813 79.9776 9.73624 80.6102C6.55112 82.053 2.53365 81.1318 0.979927 78.6348C0.52491 77.9023 0.30295 76.9146 0.30295 76.049C0.30295 72.8639 1.54593 70.1782 3.85431 67.9808C6.02951 65.9276 7.63872 63.5304 8.37119 60.5673C8.92609 58.3366 8.89279 56.2169 7.70531 54.1749C6.17378 51.5335 5.66328 48.7701 6.31806 45.7071C6.85076 43.2322 6.31806 41.0348 3.71003 39.7142C2.26729 38.9817 1.92326 37.5501 2.54474 35.619C2.83329 34.7201 3.02196 34.0209 2.57804 33.0554C2.30059 32.4339 2.56694 31.4462 2.84439 30.7137C4.16505 27.1179 5.91853 24.9538 9.65855 22.2348C4.10956 15.9423 1.47934 8.58431 2.36718 0.083252ZM20.3015 44.6861C17.8045 43.543 15.7292 44.3642 13.7759 45.2965C13.3431 45.4962 13.1322 46.7614 13.3098 47.4051C13.4208 47.8268 14.464 48.3484 14.9856 48.2596C17.1053 47.8823 18.9587 46.9722 20.3015 44.6861ZM18.0264 50.4126C16.1065 51.367 14.8968 52.832 15.1743 55.3734C19.4359 55.3068 22.4434 53.964 23.1981 50.8343C21.6333 48.981 19.8021 49.5359 18.0264 50.4126ZM19.1473 61.8325C17.3384 60.7116 14.3863 60.4563 12.1001 61.3441C11.1457 61.7104 9.91381 61.9767 10.0026 63.6414C14.6083 65.2395 18.1152 64.5071 19.1473 61.8325ZM11.7672 69.7564C13.5318 71.1326 15.6293 71.8317 17.8711 71.6542C18.426 71.6098 19.225 70.844 19.336 70.2891C19.4359 69.7786 18.8921 68.7687 18.4038 68.5911C16.7058 67.9807 14.9079 67.6034 13.1433 67.1928C12.7327 67.104 12.2555 67.2705 12.0113 67.2926C11.0347 67.903 10.8904 69.0794 11.7672 69.7564ZM4.03187 71.7097C3.57686 72.5753 3.65454 73.2634 4.46469 73.8516C5.41912 74.5396 6.32916 75.3276 7.36127 75.9047C8.40448 76.4818 9.55867 76.8147 10.8349 75.8159C10.0914 73.0858 8.50436 71.5432 6.1072 70.9883C5.21936 70.7663 4.52019 70.7885 4.03187 71.7097ZM6.6177 68.6688C7.39456 68.9685 7.96056 69.1793 8.13813 69.2459C8.49326 68.0695 8.8262 66.9708 9.23683 65.6391C7.81629 66.1052 7.53884 67.5146 6.6177 68.6688ZM13.3098 26.2523C13.0212 27.5175 12.7549 28.716 12.5107 29.8369C13.1766 30.858 13.8425 31.879 14.464 32.8334C15.9844 32.9 17.416 32.9555 19.1251 33.0221C17.749 30.1588 15.9178 28.028 13.3098 26.2523ZM10.4576 38.7597C10.6574 39.1371 11.523 39.4145 12.0224 39.3257C14.4529 38.8929 16.7391 38.0717 18.9365 36.2405C15.9067 34.9642 12.655 35.4081 10.9459 37.1949C10.6019 37.5722 10.2689 38.4157 10.4576 38.7597ZM4.96411 37.7276C8.50436 36.7177 10.9015 34.7978 11.4009 32.5671C7.22809 32.6337 4.48689 34.8311 4.96411 37.7276ZM4.40921 32.6004C7.78299 31.0466 10.8904 29.6705 10.6574 24.8318C7.22809 26.674 5.66328 29.3265 4.40921 32.6004Z" fill="white"/>
</svg>
