<svg width="28" height="66" viewBox="0 0 28 66" fill="none" xmlns="http://www.w3.org/2000/svg">
<path d="M10.7749 64.5408C8.25563 65.8726 6.01384 65.7838 4.14938 64.0636C2.07406 62.1437 0.598024 59.7576 0.431555 56.9054C0.287281 54.4639 0.531435 51.9779 0.764494 49.5253C1.07524 46.0627 1.80771 42.6223 1.8632 39.1708C1.98527 32.0903 4.32695 26.0974 9.543 21.2698C11.8292 19.1501 14.1043 17.0303 16.4238 14.9439C18.5768 13.0129 20.1305 10.6712 21.5399 8.18525C22.4389 6.62043 23.5709 5.17771 24.6696 3.72387C25.4686 2.66956 26.3675 1.68185 27.3886 0.472168C27.9879 2.10357 27.4663 3.20226 26.4563 4.06791C24.6363 5.61053 23.8039 7.68585 22.794 9.76118C21.6398 12.114 20.1305 14.3668 18.4325 16.3756C16.0131 19.2388 13.2941 21.8469 10.6639 24.5326C7.53427 27.7288 5.692 31.5243 5.1815 35.9635C4.71538 39.9699 4.23816 43.9652 3.71656 48.3156C4.49342 48.3045 5.11491 48.2934 5.692 48.2934C5.82518 48.0381 5.99165 47.8716 5.95835 47.7496C5.1149 44.0539 6.70192 42.1118 10.5085 42.3781C11.8625 42.4669 13.1831 42.9109 14.1265 43.1106C15.7912 41.6679 17.3671 40.4804 18.7099 39.0599C19.8086 37.8946 20.6188 36.4407 21.6398 34.998C21.884 36.929 21.4068 38.1054 19.8641 39.8478C19.0762 40.7356 18.2327 41.5902 17.5557 42.5446C16.5236 44.0095 16.0131 45.6521 16.2351 47.4832C16.6346 50.9347 15.8467 54.0421 13.5938 56.7278C12.9057 57.5491 12.6615 58.3814 12.8502 59.5023C13.3274 62.3434 12.7947 63.4754 10.7749 64.5408ZM4.6266 51.1345C2.57347 51.9113 2.49578 52.2221 3.09507 54.6636C5.79188 54.7302 8.41101 54.6414 10.0313 51.5451C8.22234 49.6806 6.38008 50.4797 4.6266 51.1345ZM14.0821 47.9715C14.0821 46.9172 14.071 46.0516 14.071 44.9751C11.8736 44.7864 9.84265 43.832 7.73403 45.6965C9.19897 48.6485 11.6516 47.905 14.0821 47.9715ZM13.394 51.2232C13.4939 51.0568 13.3496 50.735 13.3163 50.3798C12.7392 50.402 12.2287 50.4131 11.7182 50.4353C11.6516 54.3862 9.63179 55.9288 3.07288 57.1274C2.97299 59.3026 4.13828 60.9451 5.53663 62.3878C6.43557 63.32 7.58976 63.3755 8.83273 62.7651C10.1201 62.1215 10.1534 61.1893 9.82045 60.0129C9.28775 58.0929 9.79826 56.4504 11.0412 54.9078C11.9402 53.7758 12.6504 52.4773 13.394 51.2232Z" fill="white"/>
</svg>
