<svg width="76" height="25" viewBox="0 0 76 25" fill="none" xmlns="http://www.w3.org/2000/svg">
<path d="M65.5412 18.3893C65.2173 18.3893 64.9744 18.3083 64.7855 18.1194C64.6235 17.9574 64.5156 17.6875 64.5156 17.3636V7.40416C64.5156 7.08028 64.5965 6.81037 64.7855 6.64843C64.9744 6.48649 65.2173 6.40552 65.5412 6.40552H67.3496C67.7544 6.40552 68.1053 6.43251 68.4022 6.4595C68.6991 6.51348 68.969 6.59445 69.1579 6.75639C69.3738 6.91833 69.5088 7.13426 69.6168 7.45814C69.7247 7.75504 69.7787 8.18688 69.7787 8.6997V16.0951C69.7787 16.7698 69.6977 17.2557 69.5088 17.5795C69.3199 17.9034 69.05 18.1194 68.6991 18.2273C68.3482 18.3353 67.8894 18.3893 67.3496 18.3623L65.5412 18.3893ZM59.7383 0.602578C59.4144 0.629568 59.1445 0.71054 58.9825 0.872482C58.8206 1.03442 58.7396 1.30433 58.7396 1.62821V23.1666C58.7396 23.4904 58.8206 23.7334 59.0095 23.9223C59.1715 24.0842 59.4414 24.1922 59.7653 24.1922H67.2686C68.834 24.1922 70.1836 24.0303 71.2632 23.7064C72.3428 23.3825 73.2065 22.8697 73.8543 22.2219C74.502 21.5741 74.9879 20.7104 75.2578 19.6848C75.5546 18.6592 75.6896 17.4716 75.6896 16.0951V8.6997C75.6896 7.32319 75.5546 6.13561 75.2578 5.10998C74.9609 4.08434 74.502 3.24764 73.8543 2.59987C73.2065 1.92511 72.3428 1.43928 71.2632 1.1154C70.1836 0.791511 68.861 0.629568 67.2686 0.629568L59.7383 0.602578ZM49.9138 14.8265C49.9138 15.4743 49.8868 16.0681 49.8598 16.5809C49.8058 17.0937 49.6978 17.5256 49.5359 17.9034C49.374 18.2813 49.104 18.5512 48.7262 18.7401C48.3753 18.9291 47.8895 19.037 47.2687 19.037C46.6479 19.037 46.1621 18.9291 45.8112 18.7401C45.4334 18.5512 45.1904 18.2813 45.0015 17.9034C44.8396 17.5526 44.7316 17.0937 44.6776 16.5809C44.6236 16.0681 44.5967 15.4743 44.6236 14.8265V9.96825C44.6236 9.32048 44.6506 8.72669 44.6776 8.21387C44.7316 7.70106 44.8396 7.26921 45.0015 6.89134C45.1635 6.51348 45.4334 6.24357 45.8112 6.05464C46.1621 5.86571 46.6479 5.75775 47.2687 5.75775C47.8895 5.75775 48.3753 5.86571 48.7262 6.05464C49.104 6.24357 49.347 6.51348 49.5359 6.89134C49.6978 7.24222 49.8058 7.70106 49.8598 8.21387C49.9138 8.72669 49.9138 9.32048 49.9138 9.96825V14.8265ZM55.6897 8.18688C55.6897 7.80902 55.6627 7.35018 55.6087 6.81037C55.5548 6.27056 55.4468 5.70376 55.2579 5.08299C55.0689 4.46221 54.799 3.86842 54.4482 3.27463C54.0703 2.68084 53.5845 2.14103 52.9637 1.6552C52.3429 1.16938 51.5602 0.764521 50.6155 0.467626C49.6708 0.170732 48.5373 0.0357795 47.2147 0.00878906C45.8922 0.00878906 44.7586 0.170732 43.8139 0.467626C42.8693 0.764521 42.0865 1.16938 41.4658 1.6552C40.845 2.14103 40.3592 2.68084 39.9813 3.27463C39.6034 3.86842 39.3335 4.4892 39.1716 5.08299C38.9827 5.70376 38.8747 6.27056 38.8207 6.81037C38.7667 7.35018 38.7397 7.80902 38.7397 8.18688V16.6079C38.7397 16.9858 38.7667 17.4446 38.8207 17.9844C38.8747 18.5242 38.9827 19.091 39.1716 19.7118C39.3335 20.3326 39.6304 20.9264 39.9813 21.5201C40.3592 22.1139 40.845 22.6537 41.4658 23.1666C42.0865 23.6524 42.8693 24.0572 43.8139 24.3271C44.7586 24.624 45.8922 24.786 47.2147 24.786C48.5373 24.786 49.6708 24.624 50.6155 24.3271C51.5602 24.0303 52.3429 23.6524 52.9637 23.1666C53.5845 22.6807 54.0703 22.1409 54.4482 21.5201C54.826 20.9264 55.0959 20.3056 55.2579 19.7118C55.4198 19.091 55.5548 18.5242 55.6087 17.9844C55.6627 17.4446 55.6897 16.9858 55.6897 16.6079V8.18688ZM30.2917 14.8265C30.2917 15.4743 30.2647 16.0681 30.2378 16.5809C30.1838 17.0937 30.0758 17.5256 29.9139 17.9034C29.7519 18.2813 29.482 18.5512 29.1042 18.7401C28.7533 18.9291 28.2675 19.037 27.6467 19.037C27.0259 19.037 26.5401 18.9291 26.1892 18.7401C25.8113 18.5512 25.5684 18.2813 25.3795 17.9034C25.2175 17.5526 25.1096 17.0937 25.0556 16.5809C25.0016 16.0681 24.9746 15.4743 25.0016 14.8265V9.96825C25.0016 9.32048 25.0286 8.72669 25.0556 8.21387C25.1096 7.70106 25.2175 7.26921 25.3795 6.89134C25.5414 6.51348 25.8113 6.24357 26.1892 6.05464C26.5401 5.86571 27.0259 5.75775 27.6467 5.75775C28.2675 5.75775 28.7533 5.86571 29.1042 6.05464C29.482 6.24357 29.7249 6.51348 29.9139 6.89134C30.0758 7.24222 30.1838 7.70106 30.2378 8.21387C30.2917 8.72669 30.2917 9.32048 30.2917 9.96825V14.8265ZM36.0947 8.18688C36.0947 7.80902 36.0677 7.35018 36.0137 6.81037C35.9597 6.27056 35.8518 5.70376 35.6628 5.08299C35.4739 4.46221 35.204 3.86842 34.8531 3.27463C34.4753 2.68084 33.9894 2.14103 33.3686 1.6552C32.7479 1.16938 31.9651 0.764521 31.0205 0.467626C30.0758 0.170732 28.9422 0.0357795 27.6197 0.00878906C26.2972 0.00878906 25.1636 0.170732 24.2189 0.467626C23.2742 0.764521 22.4915 1.16938 21.8707 1.6552C21.25 2.14103 20.7641 2.68084 20.3863 3.27463C20.0084 3.86842 19.7385 4.4892 19.5765 5.08299C19.3876 5.70376 19.2796 6.27056 19.2257 6.81037C19.1717 7.35018 19.1447 7.80902 19.1447 8.18688V16.6079C19.1447 16.9858 19.1717 17.4446 19.2257 17.9844C19.2796 18.5242 19.3876 19.091 19.5765 19.7118C19.7385 20.3326 20.0354 20.9264 20.3863 21.5201C20.7641 22.1139 21.25 22.6537 21.8707 23.1666C22.4915 23.6524 23.2742 24.0572 24.2189 24.3271C25.1636 24.624 26.2972 24.786 27.6197 24.786C28.9422 24.786 30.0758 24.624 31.0205 24.3271C31.9651 24.0303 32.7479 23.6524 33.3686 23.1666C33.9894 22.6807 34.4753 22.1409 34.8531 21.5201C35.231 20.9264 35.5009 20.3056 35.6628 19.7118C35.8248 19.091 35.9597 18.5242 36.0137 17.9844C36.0677 17.4446 36.0947 16.9858 36.0947 16.6079V8.18688ZM16.1758 0.602578C16.8505 0.602578 17.1744 0.953453 17.1744 1.60122V5.37988C17.1744 5.70376 17.0934 5.94668 16.9315 6.13561C16.7695 6.32454 16.4996 6.40552 16.1758 6.40552H7.37688C7.053 6.40552 6.81008 6.48649 6.62115 6.64843C6.43222 6.81037 6.35125 7.08028 6.35125 7.40416V23.1936C6.35125 23.5174 6.27027 23.7603 6.10833 23.9493C5.94639 24.1112 5.67649 24.2192 5.3526 24.2192H1.38501C1.06113 24.2192 0.818212 24.1382 0.629279 23.9493C0.467337 23.7603 0.359375 23.5174 0.359375 23.1936V1.62821C0.359375 1.30433 0.440346 1.03442 0.629279 0.872482C0.818212 0.71054 1.06113 0.629568 1.38501 0.629568L16.1758 0.602578Z" fill="#CCCCCC"/>
</svg>
