<svg width="200" height="60" viewBox="0 0 200 60" xmlns="http://www.w3.org/2000/svg">
  <!-- Background -->
  <rect x="0" y="0" width="200" height="60" rx="12" fill="#1c1c1c"/>

  <!-- Lock icon (simple padlock) -->
  <path d="M30 25v-4a5 5 0 0110 0v4h1a2 2 0 012 2v10a2 2 0 01-2 2H29a2 2 0 01-2-2V27a2 2 0 012-2h1zm2 0h6v-4a3 3 0 00-6 0v4z" fill="#ffffff"/>

  <!-- Text: Secure -->
  <text x="50" y="28" font-family="Arial, sans-serif" font-size="14" fill="#ffffff">Secure</text>

  <!-- Text: Payment -->
  <text x="50" y="48" font-family="Arial, sans-serif" font-size="20" font-weight="bold" fill="#ffffff">Payment</text>

  <!-- Bottom purple line -->
  <line x1="0" y1="59" x2="200" y2="59" stroke="#a259ff" stroke-width="2"/>
</svg>