<svg width="104" height="20" viewBox="0 0 104 20" fill="none" xmlns="http://www.w3.org/2000/svg">
<path d="M10.3445 14.9012L14.2852 17.3974C14.7889 17.7162 15.4139 17.2418 15.2645 16.6537L14.1264 12.1756C14.0943 12.0508 14.098 11.9195 14.1371 11.7968C14.1763 11.6741 14.2492 11.5649 14.3477 11.4818L17.8814 8.54118C18.3452 8.15493 18.1064 7.38431 17.5095 7.34556L12.8952 7.04556C12.7709 7.03675 12.6517 6.99283 12.5515 6.91891C12.4513 6.845 12.3741 6.74414 12.3289 6.62806L10.6077 2.29431C10.5608 2.17115 10.4776 2.06514 10.3691 1.99034C10.2606 1.91554 10.1319 1.87549 10.0002 1.87549C9.86838 1.87549 9.73972 1.91554 9.63122 1.99034C9.52273 2.06514 9.43953 2.17115 9.39266 2.29431L7.67141 6.62806C7.62636 6.74425 7.54921 6.84525 7.44895 6.91928C7.3487 6.99331 7.22947 7.03732 7.10516 7.04618L2.49079 7.34618C1.89454 7.38431 1.65454 8.15493 2.11891 8.54118L5.65266 11.4824C5.75098 11.5655 5.82389 11.6746 5.86303 11.7972C5.90216 11.9198 5.90594 12.0509 5.87391 12.1756L4.81891 16.3287C4.63954 17.0343 5.39016 17.6037 5.99391 17.2206L9.65641 14.9012C9.75935 14.8357 9.87881 14.801 10.0008 14.801C10.1228 14.801 10.2422 14.8357 10.3452 14.9012H10.3445Z" fill="#FF8A00"/>
<path d="M31.3445 14.9012L35.2852 17.3974C35.7889 17.7162 36.4139 17.2418 36.2645 16.6537L35.1264 12.1756C35.0943 12.0508 35.098 11.9195 35.1371 11.7968C35.1763 11.6741 35.2492 11.5649 35.3477 11.4818L38.8814 8.54118C39.3452 8.15493 39.1064 7.38431 38.5095 7.34556L33.8952 7.04556C33.7709 7.03675 33.6517 6.99283 33.5515 6.91891C33.4513 6.845 33.3741 6.74414 33.3289 6.62806L31.6077 2.29431C31.5608 2.17115 31.4776 2.06514 31.3691 1.99034C31.2606 1.91554 31.1319 1.87549 31.0002 1.87549C30.8684 1.87549 30.7397 1.91554 30.6312 1.99034C30.5227 2.06514 30.4395 2.17115 30.3927 2.29431L28.6714 6.62806C28.6264 6.74425 28.5492 6.84525 28.449 6.91928C28.3487 6.99331 28.2295 7.03732 28.1052 7.04618L23.4908 7.34618C22.8945 7.38431 22.6545 8.15493 23.1189 8.54118L26.6527 11.4824C26.751 11.5655 26.8239 11.6746 26.863 11.7972C26.9022 11.9198 26.9059 12.0509 26.8739 12.1756L25.8189 16.3287C25.6395 17.0343 26.3902 17.6037 26.9939 17.2206L30.6564 14.9012C30.7594 14.8357 30.8788 14.801 31.0008 14.801C31.1228 14.801 31.2422 14.8357 31.3452 14.9012H31.3445Z" fill="#FF8A00"/>
<path d="M52.3445 14.9012L56.2852 17.3974C56.7889 17.7162 57.4139 17.2418 57.2645 16.6537L56.1264 12.1756C56.0943 12.0508 56.098 11.9195 56.1371 11.7968C56.1763 11.6741 56.2492 11.5649 56.3477 11.4818L59.8814 8.54118C60.3452 8.15493 60.1064 7.38431 59.5095 7.34556L54.8952 7.04556C54.7709 7.03675 54.6517 6.99283 54.5515 6.91891C54.4513 6.845 54.3741 6.74414 54.3289 6.62806L52.6077 2.29431C52.5608 2.17115 52.4776 2.06514 52.3691 1.99034C52.2606 1.91554 52.1319 1.87549 52.0002 1.87549C51.8684 1.87549 51.7397 1.91554 51.6312 1.99034C51.5227 2.06514 51.4395 2.17115 51.3927 2.29431L49.6714 6.62806C49.6264 6.74425 49.5492 6.84525 49.449 6.91928C49.3487 6.99331 49.2295 7.03732 49.1052 7.04618L44.4908 7.34618C43.8945 7.38431 43.6545 8.15493 44.1189 8.54118L47.6527 11.4824C47.751 11.5655 47.8239 11.6746 47.863 11.7972C47.9022 11.9198 47.9059 12.0509 47.8739 12.1756L46.8189 16.3287C46.6395 17.0343 47.3902 17.6037 47.9939 17.2206L51.6564 14.9012C51.7594 14.8357 51.8788 14.801 52.0008 14.801C52.1228 14.801 52.2422 14.8357 52.3452 14.9012H52.3445Z" fill="#FF8A00"/>
<path d="M73.3445 14.9012L77.2852 17.3974C77.7889 17.7162 78.4139 17.2418 78.2645 16.6537L77.1264 12.1756C77.0943 12.0508 77.098 11.9195 77.1371 11.7968C77.1763 11.6741 77.2492 11.5649 77.3477 11.4818L80.8814 8.54118C81.3452 8.15493 81.1064 7.38431 80.5095 7.34556L75.8952 7.04556C75.7709 7.03675 75.6517 6.99283 75.5515 6.91891C75.4513 6.845 75.3741 6.74414 75.3289 6.62806L73.6077 2.29431C73.5608 2.17115 73.4776 2.06514 73.3691 1.99034C73.2606 1.91554 73.1319 1.87549 73.0002 1.87549C72.8684 1.87549 72.7397 1.91554 72.6312 1.99034C72.5227 2.06514 72.4395 2.17115 72.3927 2.29431L70.6714 6.62806C70.6264 6.74425 70.5492 6.84525 70.449 6.91928C70.3487 6.99331 70.2295 7.03732 70.1052 7.04618L65.4908 7.34618C64.8945 7.38431 64.6545 8.15493 65.1189 8.54118L68.6527 11.4824C68.751 11.5655 68.8239 11.6746 68.863 11.7972C68.9022 11.9198 68.9059 12.0509 68.8739 12.1756L67.8189 16.3287C67.6395 17.0343 68.3902 17.6037 68.9939 17.2206L72.6564 14.9012C72.7594 14.8357 72.8788 14.801 73.0008 14.801C73.1228 14.801 73.2422 14.8357 73.3452 14.9012H73.3445Z" fill="#FF8A00"/>
<path d="M94.3445 14.9012L98.2852 17.3974C98.7889 17.7162 99.4139 17.2418 99.2645 16.6537L98.1264 12.1756C98.0943 12.0508 98.098 11.9195 98.1371 11.7968C98.1763 11.6741 98.2492 11.5649 98.3477 11.4818L101.881 8.54118C102.345 8.15493 102.106 7.38431 101.51 7.34556L96.8952 7.04556C96.7709 7.03675 96.6517 6.99283 96.5515 6.91891C96.4513 6.845 96.3741 6.74414 96.3289 6.62806L94.6077 2.29431C94.5608 2.17115 94.4776 2.06514 94.3691 1.99034C94.2606 1.91554 94.1319 1.87549 94.0002 1.87549C93.8684 1.87549 93.7397 1.91554 93.6312 1.99034C93.5227 2.06514 93.4395 2.17115 93.3927 2.29431L91.6714 6.62806C91.6264 6.74425 91.5492 6.84525 91.449 6.91928C91.3487 6.99331 91.2295 7.03732 91.1052 7.04618L86.4908 7.34618C85.8945 7.38431 85.6545 8.15493 86.1189 8.54118L89.6527 11.4824C89.751 11.5655 89.8239 11.6746 89.863 11.7972C89.9022 11.9198 89.9059 12.0509 89.8739 12.1756L88.8189 16.3287C88.6395 17.0343 89.3902 17.6037 89.9939 17.2206L93.6564 14.9012C93.7594 14.8357 93.8788 14.801 94.0008 14.801C94.1228 14.801 94.2422 14.8357 94.3452 14.9012H94.3445Z" fill="#FF8A00"/>
</svg>
